<?xml version="1.0" standalone="no"?><!DOCTYPE svg PUBLIC "-//W3C//DTD SVG 1.1//EN" "http://www.w3.org/Graphics/SVG/1.1/DTD/svg11.dtd"><svg t="1638281312745" class="icon" viewBox="0 0 1024 1024" version="1.1" xmlns="http://www.w3.org/2000/svg" p-id="44692" xmlns:xlink="http://www.w3.org/1999/xlink" width="200" height="200"><defs><style type="text/css"></style></defs><path d="M780.288 570.7776a40.96 40.96 0 0 1 40.96 40.96v122.88h122.88a40.96 40.96 0 0 1 0 81.92h-122.88v122.88a40.96 40.96 0 1 1-81.92 0v-122.88h-122.88a40.96 40.96 0 1 1 0-81.92h122.88v-122.88a40.96 40.96 0 0 1 40.96-40.96zM503.125333 6.621867a262.826667 262.826667 0 1 1 0 525.653333l12.6976-0.2048a40.96 40.96 0 0 1-12.288 1.8432 368.64 368.64 0 0 0-368.64 368.64 40.96 40.96 0 1 1-81.92 0A450.7648 450.7648 0 0 1 346.112 480.256 262.826667 262.826667 0 0 1 503.125333 6.690133z m0 81.92a180.906667 180.906667 0 1 0 0 361.813333 180.906667 180.906667 0 0 0 0-361.813333z" p-id="44693" fill="#919CAF"></path></svg>