<?xml version="1.0" standalone="no"?><!DOCTYPE svg PUBLIC "-//W3C//DTD SVG 1.1//EN" "http://www.w3.org/Graphics/SVG/1.1/DTD/svg11.dtd"><svg t="1638278268866" class="icon" viewBox="0 0 1024 1024" version="1.1" xmlns="http://www.w3.org/2000/svg" p-id="25693" xmlns:xlink="http://www.w3.org/1999/xlink" width="200" height="200"><defs><style type="text/css"></style></defs><path d="M78.842301 804.521433h144.385899c24.097647 0 36.096475 12.198809 36.096475 36.596427 0 24.397617-11.998828 36.596426-36.096475 36.596426H78.842301c-24.097647 0-36.096475-12.198809-36.096475-36.596426 0-24.397617 11.998828-36.596426 36.096475-36.596427z m0-219.478566h144.385899c24.097647 0 36.096475 12.198809 36.096475 36.596426 0 24.397617-11.998828 36.596426-36.096475 36.596426H78.842301c-24.097647 0-36.096475-12.198809-36.096475-36.596426 0-24.397617 11.998828-36.596426 36.096475-36.596426z m0-219.378576h144.385899c24.097647 0 36.096475 12.198809 36.096475 36.596426s-11.998828 36.596426-36.096475 36.596426H78.842301c-24.097647 0-36.096475-12.198809-36.096475-36.596426s11.998828-36.596426 36.096475-36.596426z m0-219.378577h144.385899c24.097647 0 36.096475 12.198809 36.096475 36.596426 0 24.397617-11.998828 36.596426-36.096475 36.596427H78.842301c-24.097647 0-36.096475-12.198809-36.096475-36.596427 0-24.397617 11.998828-36.596426 36.096475-36.596426z m649.736549-73.192852h72.19295v877.614296h-72.19295V73.092862zM151.03525 0h794.22244c10.498975 0 19.198125 3.399668 25.997461 10.298994s10.099014 15.598477 10.099014 26.297432v950.807148c0 10.698955-3.399668 19.398106-10.099014 26.297432-6.799336 6.899326-15.398496 10.298994-25.997461 10.298994H151.03525c-10.498975 0-19.198125-3.399668-25.997461-10.298994-6.799336-6.899326-10.099014-15.598477-10.099013-26.297432V36.596426c0-10.698955 3.399668-19.398106 10.099013-26.297432C131.837125 3.399668 140.436286 0 151.03525 0z m36.096475 73.092862v877.614296h722.02949V73.092862H187.131725z" p-id="25694" fill="#919CAF"></path></svg>