<?xml version="1.0" standalone="no"?><!DOCTYPE svg PUBLIC "-//W3C//DTD SVG 1.1//EN" "http://www.w3.org/Graphics/SVG/1.1/DTD/svg11.dtd"><svg t="1638279028701" class="icon" viewBox="0 0 1170 1024" version="1.1" xmlns="http://www.w3.org/2000/svg" p-id="29696" xmlns:xlink="http://www.w3.org/1999/xlink" width="228.515625" height="200"><defs><style type="text/css"></style></defs><path d="M987.062857 36.864a146.285714 146.285714 0 0 1 146.285714 146.285714v658.285715a146.285714 146.285714 0 0 1-146.285714 146.285714h-804.571428a146.285714 146.285714 0 0 1-146.285715-146.285714v-658.285715a146.285714 146.285714 0 0 1 146.285715-146.285714h804.571428z m0 87.771429h-804.571428a58.514286 58.514286 0 0 0-58.075429 51.2l-0.438857 7.314285v658.285715a58.514286 58.514286 0 0 0 51.2 58.075428l7.314286 0.438857h804.571428a58.514286 58.514286 0 0 0 58.002286-51.2l0.512-7.314285v-658.285715a58.514286 58.514286 0 0 0-51.2-58.075428l-7.314286-0.438857z m-174.811428 236.982857c37.156571 0 64 6.948571 80.603428 20.772571 16.530286 13.897143 24.868571 31.232 24.868572 52.224 0 12.288-3.437714 23.405714-10.166858 33.353143-6.729143 9.947429-16.822857 18.724571-30.427428 26.185143 10.971429 2.706286 19.382857 5.851429 25.234286 9.508571 9.435429 5.851429 16.749714 13.531429 21.942857 23.04 5.266286 9.508571 7.899429 20.845714 7.899428 34.011429 0 16.603429-4.388571 32.475429-13.019428 47.689143a87.04 87.04 0 0 1-37.449143 35.108571c-16.310857 8.192-37.668571 12.288-64.219429 12.288-25.892571 0-46.299429-2.998857-61.220571-9.069714a91.428571 91.428571 0 0 1-36.864-26.697143 122.660571 122.660571 0 0 1-22.235429-44.178286l78.994286-10.459428 2.048 8.996571a51.126857 51.126857 0 0 0 12.434286 24.137143c6.509714 6.070857 14.848 9.142857 24.868571 9.142857a34.304 34.304 0 0 0 26.550857-11.629714 44.397714 44.397714 0 0 0 10.532572-31.012572c0-13.165714-3.364571-23.405714-10.166857-30.72a36.059429 36.059429 0 0 0-27.648-10.825142c-6.217143 0-14.774857 1.536-25.6 4.681142l4.022857-56.539428 4.096 0.585143a56.32 56.32 0 0 0 6.217143 0.438857c10.386286 0 19.017143-3.291429 25.892571-9.947429a31.378286 31.378286 0 0 0 10.386286-23.405714 28.086857 28.086857 0 0 0-7.753143-20.845714 28.818286 28.818286 0 0 0-21.357714-7.753143 31.305143 31.305143 0 0 0-22.674286 8.484571c-5.851429 5.632-9.801143 15.506286-11.849143 29.549715L701.44 435.346286l3.657143-11.410286c6.729143-18.285714 17.481143-32.694857 32.182857-43.300571 17.627429-12.653714 42.642286-19.017143 74.971429-19.017143z m-463.725715 0V650.971429H268.434286V461.385143a243.053714 243.053714 0 0 1-37.522286 23.844571l-0.877714-66.340571a127.488 127.488 0 0 0 52.955428-57.270857h65.389715z m200.630857 0c27.794286 0 49.444571 3.145143 64.877715 9.508571 15.433143 6.363429 27.648 16.091429 36.498285 29.257143 8.850286 13.092571 13.312 27.794286 13.312 44.105143 0 17.334857-5.12 33.865143-15.286857 49.737143-10.093714 15.725714-28.598857 33.060571-55.369143 51.931428a585.874286 585.874286 0 0 0-31.963428 23.113143c-5.339429 4.388571-11.702857 10.166857-18.870857 17.261714h123.392V650.971429H428.617143l2.267428-13.897143a150.674286 150.674286 0 0 1 22.454858-52.150857c13.824-20.626286 39.643429-44.982857 77.531428-73.142858 23.186286-17.188571 38.034286-30.208 44.470857-39.131428a43.885714 43.885714 0 0 0 9.654857-25.453714 29.696 29.696 0 0 0-9.508571-22.235429 33.499429 33.499429 0 0 0-24.210286-9.216 33.645714 33.645714 0 0 0-24.795428 9.508571c-6.363429 6.363429-10.678857 17.554286-12.873143 33.645715l-79.213714-6.436572 2.194285-12.8c3.291429-16.237714 8.265143-29.330286 14.921143-39.350857 8.265143-12.434286 19.968-22.016 35.035429-28.672 15.067429-6.656 35.913143-10.020571 62.610285-10.020571z" p-id="29697" fill="#919CAF"></path></svg>