<?xml version="1.0" standalone="no"?><!DOCTYPE svg PUBLIC "-//W3C//DTD SVG 1.1//EN" "http://www.w3.org/Graphics/SVG/1.1/DTD/svg11.dtd"><svg t="1638279170492" class="icon" viewBox="0 0 1055 1024" version="1.1" xmlns="http://www.w3.org/2000/svg" p-id="38395" xmlns:xlink="http://www.w3.org/1999/xlink" width="206.0546875" height="200"><defs><style type="text/css"></style></defs><path d="M949.347097 1024H446.100645a106.033548 106.033548 0 0 1-106.033548-106.033548v-13.212904a357.656774 357.656774 0 1 1 715.313548 0v13.212904A106.033548 106.033548 0 0 1 949.347097 1024zM720.59871 417.197419a208.59871 208.59871 0 1 1 0-417.197419 208.59871 208.59871 0 1 1 0 417.197419z m-434.704516 52.851613a148.645161 148.645161 0 1 1 148.645161-148.645161 148.645161 148.645161 0 0 1-148.645161 148.645161z m191.091612 97.940645a357.409032 357.409032 0 0 0-238.492903 336.763871v13.212904A106.033548 106.033548 0 0 0 344.36129 1024H106.033548A106.033548 106.033548 0 0 1 0 917.966452v-13.212904a357.574194 357.574194 0 0 1 357.739355-357.574193 355.757419 355.757419 0 0 1 119.08129 20.810322z" p-id="38396" fill="#919CAF"></path></svg>