<?xml version="1.0" standalone="no"?><!DOCTYPE svg PUBLIC "-//W3C//DTD SVG 1.1//EN" "http://www.w3.org/Graphics/SVG/1.1/DTD/svg11.dtd"><svg t="1638281603651" class="icon" viewBox="0 0 1024 1024" version="1.1" xmlns="http://www.w3.org/2000/svg" p-id="61280" xmlns:xlink="http://www.w3.org/1999/xlink" width="200" height="200"><defs><style type="text/css"></style></defs><path d="M865.58208 68.39296h-289.9968c-33.61792 0-62.49472 20.21376-75.33568 49.10592-0.2048 0.4608-0.45568 0.89088-0.65536 1.3568-0.16384 0.39936-0.2816 0.8192-0.44544 1.21856a82.25792 82.25792 0 0 0-6.03648 30.89408v290.29888c0 45.54752 37.03296 82.58048 82.47296 82.58048h289.9968c33.13664 0 61.63456-19.65568 74.74688-47.88224a82.13504 82.13504 0 0 0 7.72608-34.69312V150.97344c0-45.54752-37.03296-82.58048-82.47296-82.58048z m26.29632 372.87424c0 7.2704-2.93888 13.84448-7.70048 18.60096a26.20416 26.20416 0 0 1-18.59584 7.70048h-290.00192c-14.42304 0-26.30144-11.77088-26.30144-26.30144V197.2224h0.1024v-46.24896h-0.1024v-0.00512c0-7.26528 2.944-13.83424 7.70048-18.59584s11.33056-7.70048 18.59584-7.70048h290.00192c14.42304 0 26.30144 11.77088 26.30144 26.30144v244.0448h-0.1024v46.24896h0.1024z" fill="#919CAF" p-id="61281"></path><path d="M722.81088 230.8864H176.71168c-49.3568 0-89.35936 40.00768-89.35936 89.36448v546.0992c0 49.35168 40.00256 89.34912 89.35936 89.34912h546.0992c49.3568 0 89.35936-40.00256 89.35936-89.34912V320.25088c0-49.3568-40.00768-89.36448-89.35936-89.36448z m35.70688 596.52608c0 42.04032-34.07872 76.11904-76.12928 76.11904h-465.2544c-42.04544 0-76.12928-34.08896-76.12928-76.11904V362.14784c0-42.04544 34.08384-76.1344 76.12928-76.1344h465.2544c42.05056 0 76.12928 34.08384 76.12928 76.1344v465.26464z" fill="#919CAF" p-id="61282"></path><path d="M445.25568 664.45312H238.1312c-15.53408 0-25.89184-10.34752-25.89184-25.89184 0-15.52896 10.35264-25.89184 25.89184-25.89184h207.11424c15.52896 0 25.90208 10.34752 25.90208 25.89184s-10.35776 25.89184-25.89184 25.89184zM212.24448 483.2256c0-15.52896 10.34752-25.89184 25.89184-25.89184H393.472c15.52896 0 25.89184 10.34752 25.89184 25.89184s-10.34752 25.90208-25.89184 25.90208H238.1312c-15.5392-0.00512-25.88672-10.36288-25.88672-25.90208zM600.59136 810.88H238.13632c-15.53408 0-25.89184-10.35776-25.89184-25.89184s10.35776-25.89184 25.89184-25.89184h362.45504c15.52896 0 25.90208 10.34752 25.90208 25.89184-0.00512 15.53408-10.36288 25.89184-25.90208 25.89184z" fill="#919CAF" p-id="61283"></path></svg>