<?xml version="1.0" standalone="no"?><!DOCTYPE svg PUBLIC "-//W3C//DTD SVG 1.1//EN" "http://www.w3.org/Graphics/SVG/1.1/DTD/svg11.dtd"><svg t="1638278944240" class="icon" viewBox="0 0 1433 1024" version="1.1" xmlns="http://www.w3.org/2000/svg" p-id="26110" xmlns:xlink="http://www.w3.org/1999/xlink" width="279.8828125" height="200"><defs><style type="text/css"></style></defs><path d="M1382.4 0a51.2 51.2 0 0 1 51.2 51.2v921.6a51.2 51.2 0 0 1-51.2 51.2H51.2a51.2 51.2 0 0 1-51.2-51.2v-921.6A51.2 51.2 0 0 1 51.2 0h1331.2z m-71.68 122.88H122.88v778.24h1187.84V122.88zM348.16 204.8c11.264 0 20.48 9.216 20.48 20.48v573.44a20.48 20.48 0 0 1-20.48 20.48h-81.92a20.48 20.48 0 0 1-20.48-20.48V225.28c0-11.264 9.216-20.48 20.48-20.48h81.92z" p-id="26111" fill="#919CAF"></path></svg>