<?xml version="1.0" standalone="no"?><!DOCTYPE svg PUBLIC "-//W3C//DTD SVG 1.1//EN" "http://www.w3.org/Graphics/SVG/1.1/DTD/svg11.dtd"><svg t="1638281283527" class="icon" viewBox="0 0 1024 1024" version="1.1" xmlns="http://www.w3.org/2000/svg" p-id="43921" xmlns:xlink="http://www.w3.org/1999/xlink" width="200" height="200"><defs><style type="text/css"></style></defs><path d="M489.74 105.6h44.52v812.67h-44.52" p-id="43922" fill="#919CAF"></path><path d="M207.6 317.44c0-12.29 9.97-22.26 22.26-22.26H504.6c12.29 0 22.26 9.97 22.26 22.26 0 12.29-9.97 22.26-22.26 22.26H229.86c-12.29 0-22.26-9.96-22.26-22.26zM209.14 508.8c0-12.29 9.97-22.26 22.26-22.26h274.74c12.29 0 22.26 9.97 22.26 22.26 0 12.29-9.97 22.26-22.26 22.26H231.4c-12.3 0-22.26-9.97-22.26-22.26zM209.14 700.15c0-12.29 9.97-22.26 22.26-22.26h274.74c12.29 0 22.26 9.97 22.26 22.26 0 12.29-9.97 22.26-22.26 22.26H231.4c-12.3 0-22.26-9.96-22.26-22.26zM583.72 278.87c0-12.29 9.97-22.26 22.26-22.26h196.8c12.29 0 22.26 9.97 22.26 22.26 0 12.29-9.97 22.26-22.26 22.26h-196.8c-12.3 0-22.26-9.97-22.26-22.26zM583.72 433.26c0-12.29 9.97-22.26 22.26-22.26h196.8c12.29 0 22.26 9.97 22.26 22.26 0 12.29-9.97 22.26-22.26 22.26h-196.8c-12.3 0-22.26-9.96-22.26-22.26zM583.72 587.65c0-12.29 9.97-22.26 22.26-22.26h196.8c12.29 0 22.26 9.97 22.26 22.26 0 12.29-9.97 22.26-22.26 22.26h-196.8c-12.3 0-22.26-9.96-22.26-22.26zM583.72 742.05c0-12.29 9.97-22.26 22.26-22.26h196.8c12.29 0 22.26 9.97 22.26 22.26 0 12.29-9.97 22.26-22.26 22.26h-196.8c-12.3 0-22.26-9.97-22.26-22.26z" p-id="43923" fill="#919CAF"></path><path d="M794.17 102.4H489.68v45.51h304.49c45.16 0.2 81.71 36.76 81.92 81.92v564.34c-0.2 45.16-36.76 81.71-81.92 81.92H229.83c-45.16-0.2-81.72-36.76-81.92-81.92V229.83c0.2-45.16 36.76-81.71 81.92-81.92h195.21c12.57 0 22.76-10.19 22.76-22.76 0-12.57-10.19-22.76-22.76-22.76H229.83c-70.09 0-127.43 57.34-127.43 127.43v564.34c0 70.09 57.34 127.43 127.43 127.43h564.34c70.09 0 127.43-57.34 127.43-127.43V229.83c0-70.09-57.34-127.43-127.43-127.43z" p-id="43924" fill="#919CAF"></path></svg>